<svg width="19" height="20" viewBox="0 0 19 20" fill="none" xmlns="http://www.w3.org/2000/svg">
<path fill-rule="evenodd" clip-rule="evenodd" d="M9.5 1.81818C7.92599 1.81818 6.65 3.03923 6.65 4.54545C6.65 6.05168 7.92599 7.27273 9.5 7.27273C11.074 7.27273 12.35 6.05168 12.35 4.54545C12.35 3.03923 11.074 1.81818 9.5 1.81818ZM4.75 4.54545C4.75 2.03507 6.87665 0 9.5 0C12.1234 0 14.25 2.03507 14.25 4.54545C14.25 7.05584 12.1234 9.09091 9.5 9.09091C6.87665 9.09091 4.75 7.05584 4.75 4.54545ZM3.58952 11.9545C5.48519 11.1413 7.7748 10.9091 9.5 10.9091C11.2252 10.9091 13.5148 11.1413 15.4105 11.9545C17.3403 12.7824 19 14.2928 19 16.8182V17.7273C19 18.9587 17.9596 20 16.6424 20H2.3576C1.04044 20 0 18.9587 0 17.7273V16.8182C0 14.2928 1.6597 12.7824 3.58952 11.9545ZM4.36673 13.6136C2.8528 14.2631 1.9 15.2527 1.9 16.8182V17.7273C1.9 17.9837 2.11997 18.1818 2.3576 18.1818H16.6424C16.88 18.1818 17.1 17.9837 17.1 17.7273V16.8182C17.1 15.2527 16.1472 14.2631 14.6333 13.6136C13.0852 12.9496 11.0998 12.7273 9.5 12.7273C7.9002 12.7273 5.91481 12.9496 4.36673 13.6136Z" fill="#64748B"/>
</svg>
