<svg width="19" height="20" viewBox="0 0 19 20" fill="none" xmlns="http://www.w3.org/2000/svg">
<path d="M18.32 20H11.9927C11.6619 20 11.3724 19.7086 11.3724 19.3757V14.256C11.3724 13.1738 10.5453 12.3413 9.47013 12.3413C8.39492 12.3413 7.56783 13.1738 7.56783 14.256V19.3757C7.56783 19.7086 7.27836 20 6.94752 20H0.620314C0.28948 20 0 19.7086 0 19.3757V9.59417C0 9.42768 0.0827086 9.26119 0.165417 9.13632L9.05659 0.187305C9.30472 -0.062435 9.6769 -0.062435 9.92503 0.187305L18.8162 9.13632C18.9816 9.30281 19.0643 9.59417 18.9403 9.80229C18.9403 9.84391 18.8989 9.84391 18.8989 9.88554V19.3757C18.9403 19.7086 18.6508 20 18.32 20ZM12.6131 18.7513H17.6996V9.76067L9.51149 1.51925L1.24063 9.84391V18.7513H6.32721V14.256C6.32721 12.4662 7.6919 11.0926 9.47013 11.0926C11.2484 11.0926 12.6131 12.4662 12.6131 14.256V18.7513Z" fill="#64748B"/>
</svg>
